<svg aria-hidden="true" style="position: absolute; width: 0; height: 0; overflow: hidden;" version="1.1" xmlns="http://www.w3.org/2000/svg" xmlns:xlink="http://www.w3.org/1999/xlink">
<defs>
<symbol id="icon-Frame-d" viewBox="0 0 32 32">
<path d="M4.649 0.281c-1.441 0.396-4.648 2.282-4.649 2.734-0 0.12 0.585 0.015 1.3-0.232 1.644-0.568 4.716-0.58 6.041-0.023 1.159 0.487 2.764 2.074 3.475 3.436l0.484 0.927-2.63 1.333 3.114 1.419c1.713 0.781 3.203 1.419 3.311 1.418 0.187-0.002 2.563-6.38 2.563-6.88-0-0.131-0.559 0.041-1.242 0.383l-1.242 0.621-0.21-0.649c-0.353-1.088-2.386-3.058-3.968-3.844-1.872-0.93-4.381-1.184-6.349-0.643zM20.278 2.842c-0.11 0.28-0.059 0.871 0.113 1.313 0.338 0.871 9.061 14.441 9.723 15.129 0.488 0.505 1.598 0.224 1.871-0.475 0.121-0.31-0.523-1.613-1.711-3.465l-1.905-2.968 0.794-0.567c1.008-0.719 1.006-1.612-0.006-3.070-0.868-1.252-1.777-1.481-2.685-0.675-0.499 0.442-0.687 0.244-2.497-2.627-1.615-2.562-2.093-3.105-2.728-3.105-0.424 0-0.859 0.229-0.969 0.509zM5.373 13.135c-0.397 0.246-0.292 1.485 0.761 9.034 0.814 5.834 1.378 8.929 1.691 9.29 0.42 0.484 1.178 0.541 7.163 0.541 5.8 0 6.75-0.067 7.125-0.504 0.539-0.628 2.763-17.556 2.392-18.207-0.215-0.377-1.736-0.448-9.465-0.444-5.069 0.003-9.415 0.133-9.668 0.29zM9.947 15.953c0.427 0.678 1.656 12.177 1.36 12.726-0.358 0.662-1.007 0.696-1.528 0.081-0.529-0.625-1.893-11.892-1.525-12.597 0.312-0.598 1.366-0.728 1.693-0.21zM15.756 16.219c0.191 0.35 0.326 2.953 0.326 6.276 0 6.159-0.194 6.999-1.522 6.586-0.675-0.21-0.686-0.314-0.686-6.631 0-3.529 0.095-6.51 0.21-6.623 0.419-0.411 1.352-0.192 1.671 0.392zM21.572 16.162c0.301 0.945-1.283 12.49-1.754 12.788-0.785 0.495-1.368 0.139-1.47-0.899-0.106-1.079 1.108-11.72 1.388-12.164 0.306-0.486 1.659-0.283 1.836 0.275z"></path>

</symbol>
</defs>
</svg>
